<svg xmlns="http://www.w3.org/2000/svg" viewBox="0 0 64 64" role="img" aria-label="fuyue">
  <defs>
    <linearGradient id="bg" x1="8" x2="56" y1="6" y2="58" gradientUnits="userSpaceOnUse">
      <stop offset="0" stop-color="#1d1f27" />
      <stop offset="1" stop-color="#07080e" />
    </linearGradient>
    <linearGradient id="skin" x1="20" x2="45" y1="20" y2="47" gradientUnits="userSpaceOnUse">
      <stop offset="0" stop-color="#ffd98c" />
      <stop offset="1" stop-color="#ffc266" />
    </linearGradient>
  </defs>
  <rect width="64" height="64" rx="18" fill="url(#bg)" />
  <circle cx="32" cy="34" r="22" fill="#f59e0b" opacity=".16" />
  <path
    d="M16 20c4.8-8.2 14.8-11.2 25.2-8.6 7.6 1.9 11.4 7 12.8 13.6-2.8-1.2-5.4-3.2-7.6-5.8.4 3.6-.4 7.4-2.2 10.6-2.6-1.7-3.9-4.1-4.2-7.2-2.9 4.4-7.4 7.3-13.4 8.8 1-2.6 2.6-5.1 4.9-7.6-5.7 1.8-10.4 5-14.2 9.6-.8-4.4-.3-8.9 1.5-13.4L16 20Z"
    fill="#15171d"
    stroke="#050608"
    stroke-linejoin="round"
    stroke-width="2.6"
  />
  <path
    d="M17.9 34.3c0-10.1 6.4-18.3 14.4-18.3s14.4 8.2 14.4 18.3c0 10.8-5.4 17.7-14.4 17.7s-14.4-6.9-14.4-17.7Z"
    fill="url(#skin)"
    stroke="#050608"
    stroke-width="2.6"
  />
  <path
    d="M16.9 33.3c-3.1-.1-5.5 2.3-5.1 5.2.4 3.1 3.7 5.1 7.1 4.6M47.2 33.3c3.1-.1 5.5 2.3 5.1 5.2-.4 3.1-3.7 5.1-7.1 4.6"
    fill="none"
    stroke="#050608"
    stroke-linecap="round"
    stroke-width="2.6"
  />
  <path
    d="M16.6 22.8c3.3-6.4 10-9.1 18.9-7.8 5.9.9 10.6 4.4 12.7 9.6-6.7-.9-13.2-1.4-19.6-1.2-3.8.1-7.8.4-12 1v-1.6Z"
    fill="#15171d"
  />
  <g fill="#f8fafc" stroke="#050608" stroke-width="2.8">
    <circle cx="25" cy="34" r="6.2" />
    <circle cx="39.4" cy="34" r="6.2" />
  </g>
  <path
    d="M31.2 34h2.1M18.7 32.1l-3.8-1.1M45.7 32.1l3.9-1.1"
    fill="none"
    stroke="#050608"
    stroke-linecap="round"
    stroke-width="2.8"
  />
  <g fill="#050608">
    <circle cx="25.8" cy="34.1" r="1.8" />
    <circle cx="38.6" cy="34.1" r="1.8" />
  </g>
  <path
    d="M24 43.1c4.8 4 11.9 3.8 16.4-.3.2 5.2-3.2 9.1-8.2 9.1-4.6 0-8-3.6-8.2-8.8Z"
    fill="#e66f12"
    stroke="#050608"
    stroke-linejoin="round"
    stroke-width="2.6"
  />
  <path
    d="M17.2 48.1c3.6 4.1 8.7 6.4 15.1 6.4 6.5 0 11.7-2.3 15.4-6.6"
    fill="none"
    stroke="#3f4148"
    stroke-linecap="round"
    stroke-width="7"
  />
</svg>
